<svg width="53" height="53" viewBox="0 0 53 53" fill="none" xmlns="http://www.w3.org/2000/svg">
<rect width="53" height="53" rx="14" fill="url(#paint0_linear_408_205)"/>
<path fill-rule="evenodd" clip-rule="evenodd" d="M16.6203 7.57422C14.1872 7.57422 12.2148 9.54662 12.2148 11.9797V41.0705C12.2148 43.5036 14.1872 45.476 16.6203 45.476H25.2036C35.6699 45.476 44.1545 36.9914 44.1545 26.5251C44.1545 16.0588 35.6699 7.57422 25.2037 7.57422H16.6203ZM17.1713 24.0465C17.1713 20.5562 20.166 17.2857 24.2937 16.2678C25.7665 15.9046 28.7198 15.923 30.2019 16.3044C31.963 16.7578 33.6143 17.6865 35.1016 19.0603L36.3739 20.2355L35.7596 20.4679C35.4218 20.5959 34.4202 21.0746 33.5336 21.532C24.5011 26.192 22.073 27.2232 20.1369 27.2215C18.3009 27.2201 17.1713 26.0107 17.1713 24.0465ZM35.1454 22.5534C36.9472 21.3855 38.8777 20.1186 39.4353 19.7382L39.5572 19.655C40.1455 19.2534 40.4775 19.0267 40.5235 19.0746C40.5831 19.1368 40.1624 19.66 39.1965 20.8614L39.1964 20.8615L39.0417 21.0539L37.839 22.5505L38.1728 23.5067C38.9635 25.7732 39.0583 28.9613 38.3958 31.0036C37.3929 34.0945 35.242 36.59 32.3463 38.0219C30.1385 39.1136 29.7716 39.1028 31.2838 37.9901C34.7215 35.4609 34.2926 31.1103 30.5551 30.5971C29.264 30.4199 27.8037 30.7931 24.2126 32.218C18.364 34.5384 15.5172 35.6117 15.3546 35.5569C15.2086 35.5079 18.8765 33.0979 35.1454 22.5534ZM20.0349 15.3034C20.0349 14.7508 20.4828 14.3029 21.0353 14.3029C21.5879 14.3029 22.0358 14.7508 22.0358 15.3034C22.0358 15.8559 21.5879 16.3038 21.0353 16.3038C20.4828 16.3038 20.0349 15.8559 20.0349 15.3034ZM17.8873 16.7727C17.6622 16.7727 17.4797 16.9552 17.4797 17.1803C17.4797 17.4054 17.6622 17.5879 17.8873 17.5879C18.1124 17.5879 18.2949 17.4054 18.2949 17.1803C18.2949 16.9552 18.1124 16.7727 17.8873 16.7727Z" fill="white"/>
<path d="M36.6465 6.2605C36.6465 6.14899 36.7369 6.05859 36.8484 6.05859V6.05859C36.9599 6.05859 37.0503 6.14899 37.0503 6.2605V6.2605C37.0503 6.37201 36.9599 6.4624 36.8484 6.4624V6.4624C36.7369 6.4624 36.6465 6.37201 36.6465 6.2605V6.2605Z" fill="white" fill-opacity="0.34"/>
<path d="M49.8711 18.8777C49.8711 18.7662 49.9615 18.6758 50.073 18.6758V18.6758C50.1845 18.6758 50.2749 18.7662 50.2749 18.8777V18.8777C50.2749 18.9892 50.1845 19.0796 50.073 19.0796V19.0796C49.9615 19.0796 49.8711 18.9892 49.8711 18.8777V18.8777Z" fill="white" fill-opacity="0.34"/>
<path d="M49.9707 34.2214C49.9707 34.1099 50.0611 34.0195 50.1726 34.0195V34.0195C50.2841 34.0195 50.3745 34.1099 50.3745 34.2214V34.2214C50.3745 34.3329 50.2841 34.4233 50.1726 34.4233V34.4233C50.0611 34.4233 49.9707 34.3329 49.9707 34.2214V34.2214Z" fill="white" fill-opacity="0.24"/>
<rect x="22.6133" y="2.82812" width="0.504762" height="0.504762" rx="0.252381" fill="white" fill-opacity="0.34"/>
<rect x="7.06641" y="10.8008" width="0.302857" height="0.302857" rx="0.151429" fill="white" fill-opacity="0.34"/>
<rect x="4.03906" y="37.1523" width="0.605714" height="0.605714" rx="0.302857" fill="white" fill-opacity="0.34"/>
<rect x="42.8047" y="44.6211" width="0.504762" height="0.504762" rx="0.252381" fill="white" fill-opacity="0.34"/>
<rect x="37.4531" y="51.7891" width="0.908571" height="0.908571" rx="0.454286" fill="white" fill-opacity="0.24"/>
<rect x="13.7305" y="49.2656" width="0.504762" height="0.504762" rx="0.252381" fill="white" fill-opacity="0.34"/>
<rect x="7.875" y="20.7969" width="0.40381" height="0.40381" rx="0.201905" fill="white" fill-opacity="0.34"/>
<defs>
<linearGradient id="paint0_linear_408_205" x1="38.7433" y1="10.1324" x2="13.8021" y2="44.8811" gradientUnits="userSpaceOnUse">
<stop stop-color="#FF3A8C"/>
<stop offset="1" stop-color="#FFAC85"/>
</linearGradient>
</defs>
</svg>